<svg width="20" height="20" viewBox="0 0 20 20" fill="none" xmlns="http://www.w3.org/2000/svg">
  <path d="M11.84 2.7A1 1 0 0 0 10.16 2.7L9.63 3.58A1 1 0 0 1 8.63 4.05L7.63 3.88A1 1 0 0 0 6.44 5.07L6.61 6.07A1 1 0 0 1 6.14 7.07L5.26 7.6A1 1 0 0 0 5.26 9.28L6.14 9.81A1 1 0 0 1 6.61 10.81L6.44 11.81A1 1 0 0 0 7.63 13L8.63 12.83A1 1 0 0 1 9.63 13.3L10.16 14.18A1 1 0 0 0 11.84 14.18L12.37 13.3A1 1 0 0 1 13.37 12.83L14.37 13A1 1 0 0 0 15.56 11.81L15.39 10.81A1 1 0 0 1 15.86 9.81L16.74 9.28A1 1 0 0 0 16.74 7.6L15.86 7.07A1 1 0 0 1 15.39 6.07L15.56 5.07A1 1 0 0 0 14.37 3.88L13.37 4.05A1 1 0 0 1 12.37 3.58L11.84 2.7Z" fill="currentColor"/>
  <circle cx="10" cy="8.44" r="2.5" fill="white"/>
</svg>
